<?xml version="1.0" encoding="utf-8"?>
<!-- Generator: Adobe Illustrator 21.1.0, SVG Export Plug-In . SVG Version: 6.00 Build 0)  -->
<svg version="1.1" id="Layer_1" xmlns="http://www.w3.org/2000/svg" xmlns:xlink="http://www.w3.org/1999/xlink" x="0px" y="0px"
	 viewBox="0 0 25 25" style="enable-background:new 0 0 25 25;" xml:space="preserve">
<style type="text/css">
	.st0{fill:#FFFFFF;}
</style>
<path class="st0" d="M12.5,0C5.6,0,0,5.6,0,12.5c0,5.3,3.3,9.8,7.9,11.6c-0.1-1-0.2-2.5,0-3.6c0.2-1,1.5-6.2,1.5-6.2
	s-0.4-0.7-0.4-1.9c0-1.7,1-3,2.3-3c1.1,0,1.6,0.8,1.6,1.8c0,1.1-0.7,2.7-1,4.2c-0.3,1.2,0.6,2.3,1.8,2.3c2.2,0,3.9-2.3,3.9-5.7
	c0-3-2.1-5.1-5.2-5.1c-3.6,0-5.6,2.7-5.6,5.4c0,1.1,0.4,2.2,0.9,2.9c0.1,0.1,0.1,0.2,0.1,0.4c-0.1,0.4-0.3,1.2-0.3,1.4
	c-0.1,0.2-0.2,0.3-0.4,0.2c-1.6-0.7-2.5-3-2.5-4.8c0-3.9,2.9-7.6,8.3-7.6c4.3,0,7.7,3.1,7.7,7.2c0,4.3-2.7,7.8-6.5,7.8
	c-1.3,0-2.5-0.7-2.9-1.4c0,0-0.6,2.4-0.8,3c-0.3,1.1-1,2.4-1.6,3.3c1.2,0.4,2.4,0.6,3.7,0.6C19.4,25,25,19.4,25,12.5
	C25,5.6,19.4,0,12.5,0z"/>
</svg>
