<?xml version="1.0" encoding="UTF-8" standalone="no"?>
<!DOCTYPE svg PUBLIC "-//W3C//DTD SVG 1.1//EN" "http://www.w3.org/Graphics/SVG/1.1/DTD/svg11.dtd">
<svg width="100%" height="100%" viewBox="0 0 256 256" version="1.1" xmlns="http://www.w3.org/2000/svg" xmlns:xlink="http://www.w3.org/1999/xlink" xml:space="preserve" style="fill-rule:evenodd;clip-rule:evenodd;stroke-linejoin:round;stroke-miterlimit:1.41421;">
    <g id="HamburgerMenu" transform="matrix(0.812383,0,0,0.812383,24.0326,23.9916)">
        <path d="M239.171,198.184C246.769,198.185 252.937,204.353 252.937,211.951L252.937,239.485C252.937,247.083 246.769,253.251 239.171,253.251L17.205,253.251C9.606,253.251 3.438,247.083 3.438,239.485L3.438,211.951C3.438,204.353 9.606,198.185 17.205,198.184L239.171,198.184ZM238.983,100.467C246.581,100.467 252.75,106.635 252.75,114.233L252.75,141.767C252.75,149.365 246.581,155.533 238.983,155.533L17.017,155.533C9.419,155.533 3.25,149.365 3.25,141.767L3.25,114.233C3.25,106.635 9.418,100.467 17.017,100.467L238.983,100.467ZM238.983,2.5C246.581,2.5 252.75,8.669 252.75,16.267L252.75,43.8C252.75,51.398 246.581,57.567 238.983,57.567L17.017,57.567C9.419,57.567 3.25,51.398 3.25,43.8L3.25,16.267C3.25,8.669 9.418,2.5 17.017,2.5L238.983,2.5Z" style="fill:rgb(236,237,237);"/>
    </g>
</svg>
