<?xml version="1.0" encoding="utf-8"?>
<!-- Generator: Adobe Illustrator 21.1.0, SVG Export Plug-In . SVG Version: 6.00 Build 0)  -->
<svg version="1.1" xmlns="http://www.w3.org/2000/svg" xmlns:xlink="http://www.w3.org/1999/xlink" x="0px" y="0px"
	 viewBox="0 0 29 117.8" style="enable-background:new 0 0 29 117.8;" xml:space="preserve">
<style type="text/css">
	.st0{fill:none;stroke:#000000;stroke-width:2;stroke-linecap:square;stroke-miterlimit:10;}
	.st1{display:none;}
	.st2{display:inline;fill:none;stroke:#000000;stroke-width:3;stroke-linecap:square;stroke-miterlimit:10;}
	.st3{display:inline;fill:#C9C9C9;}
	.st4{display:inline;fill:#FFFFFF;}
	.st5{display:inline;fill:none;stroke:#000000;stroke-miterlimit:10;}
	.st6{display:inline;}
	.st7{fill:none;stroke:#000000;stroke-miterlimit:10;}
</style>
<g id="Layer_1">
	<g id="Layer_1_1_">
		<g>
			<line class="st0" x1="9.9" y1="102" x2="14.5" y2="106.7"/>
			<line class="st0" x1="19.1" y1="102" x2="14.5" y2="106.7"/>
		</g>
	</g>
	<g id="Layer_2" class="st1">
		<rect x="2" y="90.8" class="st2" width="25" height="25"/>
		<rect x="2" y="36.8" class="st2" width="25" height="25"/>
		<rect x="2" y="9.8" class="st2" width="25" height="25"/>
	</g>
	<g>
		<rect x="7.1" y="66.4" width="3.3" height="3.3"/>
		<rect x="12.8" y="66.4" width="3.3" height="3.3"/>
		<rect x="18.5" y="66.4" width="3.3" height="3.3"/>
		<rect x="18.5" y="72.1" width="3.3" height="3.3"/>
		<rect x="18.5" y="77.7" width="3.3" height="3.3"/>
		<rect x="7.1" y="72.1" width="3.3" height="3.3"/>
		<rect x="12.8" y="72.1" width="3.3" height="3.3"/>
		<rect x="12.8" y="77.7" width="3.3" height="3.3"/>
		<rect x="7.1" y="77.7" width="3.3" height="3.3"/>
	</g>
	<g>
		<line class="st0" x1="5.3" y1="39.9" x2="23.7" y2="39.9"/>
		<line class="st0" x1="8.4" y1="37.8" x2="8.4" y2="41.9"/>
		<line class="st0" x1="23.7" y1="48.3" x2="5.3" y2="48.3"/>
		<line class="st0" x1="20.6" y1="50.4" x2="20.6" y2="46.3"/>
	</g>
	<g>
		<line class="st0" x1="5.3" y1="9.3" x2="23.7" y2="9.3"/>
		<line class="st0" x1="5.3" y1="14.5" x2="23.7" y2="14.5"/>
		<line class="st0" x1="23.7" y1="19.7" x2="5.3" y2="19.7"/>
	</g>
</g>
<g id="Layer_3" class="st1">
	<path class="st3" d="M14.5,90.7C7.6,90.7,2,96.3,2,103.2c0,5.3,3.3,9.8,7.9,11.6c-0.1-1-0.2-2.5,0-3.6c0.2-1,1.5-6.2,1.5-6.2
		s-0.4-0.7-0.4-1.9c0-1.7,1-3,2.3-3c1.1,0,1.6,0.8,1.6,1.8c0,1.1-0.7,2.7-1,4.2c-0.3,1.2,0.6,2.3,1.8,2.3c2.2,0,3.9-2.3,3.9-5.7
		c0-3-2.1-5.1-5.2-5.1c-3.6,0-5.6,2.7-5.6,5.4c0,1.1,0.4,2.2,0.9,2.9c0.1,0.1,0.1,0.2,0.1,0.4c-0.1,0.4-0.3,1.2-0.3,1.4
		c-0.1,0.2-0.2,0.3-0.4,0.2c-1.6-0.7-2.5-3-2.5-4.8c0-3.9,2.9-7.6,8.3-7.6c4.3,0,7.7,3.1,7.7,7.2c0,4.3-2.7,7.8-6.5,7.8
		c-1.3,0-2.5-0.7-2.9-1.4c0,0-0.6,2.4-0.8,3c-0.3,1.1-1,2.4-1.6,3.3c1.2,0.4,2.4,0.6,3.7,0.6c6.9-0.3,12.5-5.9,12.5-12.8
		S21.4,90.7,14.5,90.7z"/>
	<path class="st3" d="M20.2,39.7h-3.9v-2.5c0-1,0.7-1.2,1.1-1.2c0.4,0,2.7,0,2.7,0v-4.2h-3.8c-4.2,0-5.1,3.2-5.1,5.2v2.8H8.8v4.3
		h1.4c0,5.6,0,12.3,0,12.3h5.1c0,0,0-6.8,0-12.3h3.5L20.2,39.7z"/>
	<path class="st3" d="M27,65.3c-0.9,0.4-1.9,0.7-2.9,0.9c1-0.7,1.9-1.8,2.3-3.1c-1,0.6-2.1,1.1-3.2,1.3c-0.9-1.1-2.3-1.8-3.7-1.8
		c-2.8,0-5.1,2.5-5.1,5.6c0,0.4,0.1,0.9,0.1,1.3c-4.3-0.2-8-2.4-10.6-5.8C3.2,64.5,3,65.5,3,66.5c0,2,0.9,3.7,2.2,4.7
		c-0.8-0.1-1.6-0.3-2.3-0.7v0.1c0,2.7,1.8,5,4.1,5.4c-0.4,0.1-0.8,0.2-1.3,0.2c-0.3,0-0.7,0-1-0.1C5.5,78.3,7.3,80,9.6,80
		c-1.8,1.5-4,2.4-6.4,2.4c-0.4,0-0.8,0-1.2-0.1c2.3,1.6,5,2.5,7.9,2.5c9.4,0,14.6-8.5,14.6-15.9c0-0.2,0-0.5,0-0.7
		C25.5,67.4,26.3,66.4,27,65.3z"/>
</g>
<g id="Layer_4" class="st1">
	<path class="st4" d="M14.5,90.7C7.6,90.7,2,96.3,2,103.2c0,5.3,3.3,9.8,7.9,11.6c-0.1-1-0.2-2.5,0-3.6c0.2-1,1.5-6.2,1.5-6.2
		s-0.4-0.7-0.4-1.9c0-1.7,1-3,2.3-3c1.1,0,1.6,0.8,1.6,1.8c0,1.1-0.7,2.7-1,4.2c-0.3,1.2,0.6,2.3,1.8,2.3c2.2,0,3.9-2.3,3.9-5.7
		c0-3-2.1-5.1-5.2-5.1c-3.6,0-5.6,2.7-5.6,5.4c0,1.1,0.4,2.2,0.9,2.9c0.1,0.1,0.1,0.2,0.1,0.4c-0.1,0.4-0.3,1.2-0.3,1.4
		c-0.1,0.2-0.2,0.3-0.4,0.2c-1.6-0.7-2.5-3-2.5-4.8c0-3.9,2.9-7.6,8.3-7.6c4.3,0,7.7,3.1,7.7,7.2c0,4.3-2.7,7.8-6.5,7.8
		c-1.3,0-2.5-0.7-2.9-1.4c0,0-0.6,2.4-0.8,3c-0.3,1.1-1,2.4-1.6,3.3c1.2,0.4,2.4,0.6,3.7,0.6c6.9-0.3,12.5-5.9,12.5-12.8
		S21.4,90.7,14.5,90.7z"/>
	<path class="st4" d="M20.2,39.7h-3.9v-2.5c0-1,0.7-1.2,1.1-1.2c0.4,0,2.7,0,2.7,0v-4.2h-3.8c-4.2,0-5.1,3.2-5.1,5.2v2.8H8.8v4.3
		h1.4c0,5.6,0,12.3,0,12.3h5.1c0,0,0-6.8,0-12.3h3.5L20.2,39.7z"/>
	<path class="st4" d="M27,65.3c-0.9,0.4-1.9,0.7-2.9,0.9c1-0.7,1.9-1.8,2.3-3.1c-1,0.6-2.1,1.1-3.2,1.3c-0.9-1.1-2.3-1.8-3.7-1.8
		c-2.8,0-5.1,2.5-5.1,5.6c0,0.4,0.1,0.9,0.1,1.3c-4.3-0.2-8-2.4-10.6-5.8C3.2,64.5,3,65.5,3,66.5c0,2,0.9,3.7,2.2,4.7
		c-0.8-0.1-1.6-0.3-2.3-0.7v0.1c0,2.7,1.8,5,4.1,5.4c-0.4,0.1-0.8,0.2-1.3,0.2c-0.3,0-0.7,0-1-0.1C5.5,78.3,7.3,80,9.6,80
		c-1.8,1.5-4,2.4-6.4,2.4c-0.4,0-0.8,0-1.2-0.1c2.3,1.6,5,2.5,7.9,2.5c9.4,0,14.6-8.5,14.6-15.9c0-0.2,0-0.5,0-0.7
		C25.5,67.4,26.3,66.4,27,65.3z"/>
</g>
<g id="Layer_2_1_" class="st1">
	<rect x="0.5" y="89.3" class="st5" width="28" height="28"/>
	<rect x="15.5" y="87.7" class="st5" width="28" height="1.6"/>
	<rect x="15.5" y="117.4" class="st5" width="28" height="1.6"/>
	<rect x="0.5" y="59.7" class="st5" width="28" height="28"/>
	<rect x="15.5" y="58.1" class="st5" width="28" height="1.6"/>
	<rect x="0.5" y="30.1" class="st5" width="28" height="28"/>
	<rect x="15.5" y="28.5" class="st5" width="28" height="1.6"/>
	<rect x="15.5" y="-1.1" class="st5" width="28" height="1.6"/>
	<g class="st6">
		<rect x="0.5" y="0.5" class="st7" width="28" height="28"/>
	</g>
</g>
</svg>
